PathFileType	4	(X/Y/Z)	D:\MotionData\NordSprintingStudy\Test 2\Edited\COP_Right_Board_FP3000001.trc
DataRate	CameraRate	NumFrames	NumMarkers	Units	OrigDataRate	OrigDataStartFrame	OrigNumFrames
200.00	200.00	     71	5	mm	200.00	15492	     17704
Frame#	Time	M1			M2			M3			M4			M5			
		X1	Y1	Z1	X2	Y2	Z2	X3	Y3	Z3	X4	Y4	Z4	X5	Y5	Z5	

15492	77.455	1051.22729	1927.91394	48.53891	1034.39978	2247.66284	57.48036	1234.18225	2258.61841	56.62935	1633.71985	2280.30347	56.24011	1650.53613	1959.26733	47.40764	
15493	77.460	1051.40308	1927.65356	48.60750	1034.52588	2247.72607	57.34648	1234.17493	2258.63062	56.66138	1633.79712	2280.30908	56.17301	1650.49878	1959.24097	47.41096	
15494	77.465	1051.41882	1927.64893	48.60224	1034.51855	2247.72754	57.35365	1234.13403	2258.60693	56.65656	1633.78308	2280.32593	56.16647	1650.50012	1959.24609	47.43002	
15495	77.470	1051.46008	1927.66309	48.57957	1034.46143	2247.68115	57.42377	1234.27344	2258.65356	56.52943	1633.78223	2280.30566	56.18621	1650.52856	1959.27014	47.42132	
15496	77.475	1051.36853	1927.65417	48.67599	1034.45007	2247.69702	57.42839	1234.25720	2258.63110	56.57439	1633.70593	2280.28223	56.24182	1650.46448	1959.26196	47.45866	
15497	77.480	1051.36841	1927.64636	48.69064	1034.49280	2247.73755	57.40239	1234.23645	2258.64209	56.61311	1633.67529	2280.27393	56.28340	1650.53174	1959.24768	47.42963	
15498	77.485	1051.40942	1927.65588	48.59446	1034.44641	2247.70410	57.46901	1234.26318	2258.66357	56.59272	1633.68250	2280.28418	56.32059	1650.52893	1959.25024	47.41298	
15499	77.490	1051.45508	1927.68823	48.55146	1034.56641	2247.71997	57.32702	1234.24658	2258.64990	56.56853	1633.74866	2280.27905	56.23301	1650.56628	1959.25403	47.39682	
15500	77.495	1051.42456	1927.68250	48.58337	1034.60645	2247.74707	57.32314	1234.19800	2258.63403	56.66963	1633.81140	2280.33496	56.18117	1650.51965	1959.24341	47.44844	
15501	77.500	1051.43604	1927.68726	48.58802	1034.58337	2247.76367	57.31531	1234.30054	2258.68994	56.50311	1633.74341	2280.29663	56.21362	1650.52344	1959.27087	47.41710	
15502	77.505	1051.35376	1927.64832	48.63214	1034.54578	2247.74854	57.37468	1234.30115	2258.66479	56.52296	1633.81628	2280.31812	56.16818	1650.49390	1959.25781	47.45439	
15503	77.510	1051.45801	1927.66431	48.55039	1034.48730	2247.70483	57.37173	1234.27185	2258.68994	56.52004	1633.76318	2280.30151	56.18368	1650.55688	1959.27612	47.36375	
15504	77.515	1051.51257	1927.70850	48.45287	1034.56165	2247.69629	57.28663	1234.32373	2258.67944	56.50884	1633.80774	2280.31641	56.12041	1650.58997	1959.28308	47.32932	
15505	77.520	1051.44043	1927.68066	48.51120	1034.58960	2247.77979	57.24226	1234.19421	2258.65259	56.58585	1633.82800	2280.35010	56.08685	1650.53772	1959.28235	47.37006	
15506	77.525	1051.46497	1927.69739	48.52563	1034.64563	2247.74756	57.18678	1234.30530	2258.68848	56.46577	1633.86169	2280.35327	56.08745	1650.53223	1959.28503	47.34513	
15507	77.530	1051.39856	1927.66431	48.56969	1034.49780	2247.73901	57.30719	1234.25720	2258.66675	56.48380	1633.81689	2280.35522	56.09960	1650.50476	1959.28174	47.38354	
15508	77.535	1051.49683	1927.68872	48.47763	1034.48547	2247.71069	57.32747	1234.29102	2258.66919	56.47399	1633.79602	2280.30957	56.12096	1650.54260	1959.28564	47.32423	
15509	77.540	1051.47351	1927.68311	48.46432	1034.56348	2247.72119	57.27109	1234.28137	2258.66431	56.50480	1633.85864	2280.34619	56.06049	1650.58167	1959.29785	47.31767	
15510	77.545	1051.44800	1927.66174	48.54183	1034.52832	2247.73022	57.32031	1234.21216	2258.62085	56.60765	1633.82166	2280.33716	56.11782	1650.51440	1959.28430	47.38651	
15511	77.550	1051.41516	1927.67651	48.54433	1034.52637	2247.69653	57.31883	1234.22302	2258.64893	56.59104	1633.81372	2280.31494	56.15636	1650.51697	1959.28015	47.38811	
15512	77.555	1051.41211	1927.65356	48.55413	1034.56226	2247.72852	57.28123	1234.30237	2258.66968	56.47236	1633.76074	2280.30640	56.15771	1650.52869	1959.27844	47.40038	
15513	77.560	1051.33923	1927.66272	48.64916	1034.56604	2247.74561	57.30817	1234.29150	2258.67017	56.52294	1633.78113	2280.30469	56.17621	1650.46265	1959.25330	47.46482	
15514	77.565	1051.33228	1927.63599	48.66422	1034.46362	2247.71118	57.36279	1234.22192	2258.66113	56.57501	1633.69067	2280.31372	56.22781	1650.46875	1959.26038	47.43532	
15515	77.570	1051.43604	1927.11377	49.20539	1034.39600	2247.71704	57.51277	1234.20874	2258.64087	56.59620	1633.68140	2280.28003	56.22638	1650.49902	1959.27466	47.40616	
15516	77.575	1051.29504	1927.40051	49.11145	1034.54639	2247.75659	57.33545	1234.16577	2258.65308	56.64447	1633.80518	2280.32983	56.15338	1650.48608	1959.25757	47.41832	
15517	77.580	1051.28687	1927.44495	49.12399	1034.46350	2247.72046	57.38139	1234.13892	2258.63330	56.64693	1633.76514	2280.31152	56.16584	1650.47058	1959.26563	47.44733	
15518	77.585	1051.29724	1927.42493	49.11524	1034.41821	2247.68237	57.42924	1234.25098	2258.68628	56.54480	1633.70776	2280.28198	56.24474	1650.42834	1959.25342	47.45704	
15519	77.590	1051.22559	1927.42004	49.16035	1034.44116	2247.71387	57.39264	1234.21643	2258.67603	56.56136	1633.69165	2280.29614	56.23866	1650.44873	1959.27393	47.46333	
15520	77.595	1051.25293	1927.40430	49.13890	1034.51270	2247.72778	57.33145	1234.22937	2258.65942	56.58154	1633.63330	2280.27808	56.28905	1650.50000	1959.25488	47.43493	
15521	77.600	1051.24854	1927.42029	49.11250	1034.50098	2247.72217	57.36464	1234.22278	2258.65918	56.56640	1633.66357	2280.28687	56.24671	1650.47534	1959.28430	47.38726	
15522	77.605	1051.30298	1927.43262	49.04948	1034.55017	2247.72534	57.21758	1234.22522	2258.66406	56.53028	1633.73828	2280.27808	56.12983	1650.49927	1959.27930	47.36382	
15523	77.610	1051.28528	1927.43665	49.07632	1034.56323	2247.73267	57.27004	1234.23962	2258.67651	56.52550	1633.81787	2280.31616	56.07540	1650.50122	1959.26062	47.37218	
15524	77.615	1051.28918	1927.45081	49.06940	1034.50378	2247.72119	57.31731	1234.21094	2258.63916	56.55929	1633.72021	2280.29639	56.18051	1650.52087	1959.26648	47.37499	
15525	77.620	1051.29846	1927.42883	49.06203	1034.52161	2247.76050	57.30237	1234.25806	2258.67896	56.48952	1633.70789	2280.29102	56.17040	1650.49988	1959.26953	47.39323	
15526	77.625	1051.25659	1927.43909	49.09206	1034.49060	2247.74561	57.36412	1234.22522	2258.66333	56.52850	1633.73718	2280.31567	56.16556	1650.44873	1959.24634	47.43389	
15527	77.630	1051.30908	1927.42993	49.04804	1034.52295	2247.75269	57.30505	1234.23804	2258.66577	56.52717	1633.70654	2280.31055	56.18502	1650.51807	1959.26660	47.36861	
15528	77.635	1051.32275	1927.44641	49.01377	1034.54431	2247.72778	57.27058	1234.26941	2258.67969	56.49759	1633.74316	2280.30176	56.14179	1650.52429	1959.28259	47.34161	
15529	77.640	1051.32483	1927.45056	49.06509	1034.57239	2247.77319	57.22874	1234.19580	2258.67114	56.55023	1633.80542	2280.37036	56.09599	1650.49609	1959.26489	47.37399	
15530	77.645	1051.32971	1927.44922	49.08191	1034.60583	2247.77368	57.22510	1234.27393	2258.66089	56.49420	1633.79480	2280.32520	56.11433	1650.50403	1959.26794	47.40749	
15531	77.650	1051.27332	1927.44775	49.10787	1034.49866	2247.73218	57.33616	1234.28418	2258.65698	56.51581	1633.72351	2280.31299	56.18490	1650.48926	1959.26135	47.39236	
15532	77.655	1051.34070	1927.45105	49.03100	1034.57690	2247.73413	57.20901	1234.26172	2258.67676	56.46972	1633.80432	2280.33032	56.11089	1650.57202	1959.29370	47.33461	
15533	77.660	1051.35242	1927.45642	49.04326	1034.55994	2247.70728	57.27069	1234.20471	2258.64551	56.60356	1633.80920	2280.31323	56.12717	1650.53577	1959.27148	47.35629	
15534	77.665	1051.34448	1927.46436	49.02139	1034.52734	2247.73999	57.30938	1234.33289	2258.68994	56.42667	1633.77795	2280.32178	56.14027	1650.56055	1959.30298	47.34662	
15535	77.670	1051.30432	1927.43091	49.09883	1034.56750	2247.75708	57.26080	1234.27136	2258.67480	56.51846	1633.85608	2280.31934	56.06601	1650.51563	1959.28528	47.40966	
15536	77.675	1051.33826	1927.45459	49.01461	1034.49280	2247.71729	57.40615	1234.27844	2258.65405	56.50611	1633.70813	2280.29077	56.26230	1650.57556	1959.29016	47.32417	
15537	77.680	1051.36108	1927.46021	49.03409	1034.45776	2247.67578	57.38114	1234.28711	2258.68213	56.49617	1633.80249	2280.31836	56.12727	1650.56030	1959.27380	47.33827	
15538	77.685	1051.32117	1927.44312	49.07701	1034.53979	2247.72803	57.33389	1234.19348	2258.63550	56.61192	1633.83069	2280.31738	56.13654	1650.48450	1959.25708	47.38369	
15539	77.690	1051.32739	1927.44202	49.06895	1034.51013	2247.73438	57.34764	1234.27344	2258.68335	56.50516	1633.71350	2280.28540	56.22743	1650.54504	1959.27258	47.37480	
15540	77.695	1051.34387	1927.43445	49.09559	1034.54944	2247.72290	57.33466	1234.27173	2258.66797	56.53762	1633.75256	2280.30029	56.18048	1650.49475	1959.27063	47.42392	
15541	77.700	1051.27527	1927.43787	49.15533	1034.61255	2247.78198	57.28249	1234.24658	2258.63916	56.56319	1633.73657	2280.30859	56.18948	1650.47058	1959.25061	47.47586	
15542	77.705	1051.29370	1927.41650	49.16192	1034.37341	2247.65015	57.52741	1234.22412	2258.64844	56.60480	1633.69812	2280.29810	56.30125	1650.49500	1959.27063	47.42702	
15543	77.710	1051.25378	1927.43530	49.18000	1034.46948	2247.71191	57.42653	1234.23083	2258.68018	56.60276	1633.63855	2280.27051	56.29628	1650.44495	1959.24304	47.50451	
15544	77.715	1051.28833	1927.42517	49.15053	1034.42737	2247.66626	57.51933	1234.20740	2258.64502	56.64788	1633.67053	2280.26221	56.29899	1650.49683	1959.27197	47.43608	
15545	77.720	1051.32361	1927.43579	49.10905	1034.42505	2247.70825	57.49443	1234.24573	2258.65479	56.58937	1633.66821	2280.28027	56.28659	1650.49500	1959.25769	47.43207	
15546	77.725	1051.32495	1927.45154	49.13495	1034.54382	2247.74585	57.34280	1234.21362	2258.65112	56.66002	1633.74744	2280.29199	56.21407	1650.47729	1959.28015	47.44841	
15547	77.730	1051.29285	1927.43762	49.13219	1034.54724	2247.72144	57.34997	1234.17737	2258.62207	56.68303	1633.75281	2280.28491	56.17007	1650.46680	1959.24097	47.47860	
15548	77.735	1051.30505	1927.43103	49.15504	1034.49084	2247.69116	57.42725	1234.18176	2258.63281	56.67834	1633.74658	2280.29688	56.22226	1650.52637	1959.27222	47.47841	
15549	77.740	1051.27917	1927.43250	49.14159	1034.56055	2247.70728	57.38335	1234.09717	2258.59937	56.70881	1633.76111	2280.31372	56.17880	1650.50415	1959.25757	47.43404	
15550	77.745	1051.32532	1927.44434	49.11191	1034.54944	2247.72949	57.34270	1234.31653	2258.82007	56.14382	1633.75830	2280.30103	56.19987	1650.50562	1959.26221	47.44640	
15551	77.750	1051.26978	1927.42297	49.15171	1034.50134	2247.69775	57.42235	1234.30359	2258.80518	56.21135	1633.74719	2280.28271	56.24269	1650.47351	1959.26685	47.47575	
15552	77.755	1051.30103	1927.44312	49.11358	1034.47620	2247.71094	57.36956	1234.28381	2258.83081	56.19470	1633.77417	2280.31299	56.18683	1650.49463	1959.26099	47.40913	
15553	77.760	1051.31494	1927.41895	49.09528	1034.47717	2247.70313	57.37495	1234.31909	2258.84521	56.12585	1633.69849	2280.26123	56.23151	1650.58533	1959.27869	47.34149	
15554	77.765	1051.35095	1927.44470	48.99817	1034.58142	2247.69897	57.28836	1234.38745	2258.86694	56.07816	1633.74573	2280.27979	56.14334	1650.56555	1959.26672	47.35090	
15555	77.770	1051.34058	1927.45142	49.02884	1034.62195	2247.76196	57.19251	1234.35120	2258.86377	56.10886	1633.81006	2280.30713	56.07058	1650.56750	1959.28589	47.34324	
15556	77.775	1051.34900	1927.45251	49.01200	1034.40039	2247.65186	57.41764	1234.36951	2258.84521	56.05895	1633.84106	2280.34668	56.08314	1650.54443	1959.28821	47.34559	
15557	77.780	1051.38562	1927.45435	49.00834	1034.64392	2247.75659	57.14272	1234.27563	2258.84546	56.15427	1633.85510	2280.34741	56.01916	1650.56909	1959.28821	47.33580	
15558	77.785	1051.36084	1927.46045	49.01948	1034.53210	2247.74390	57.29237	1234.27612	2258.84692	56.12447	1633.85046	2280.34497	56.06561	1650.53003	1959.30762	47.34213	
15559	77.790	1051.32483	1927.45105	49.05050	1034.57971	2247.75122	57.18678	1234.19287	2258.82495	56.22290	1633.78845	2280.33496	56.09368	1650.52051	1959.27478	47.36020	
15560	77.795	1051.31177	1927.45020	49.04571	1034.54199	2247.73413	57.25591	1234.23315	2258.81714	56.19006	1633.78687	2280.33154	56.12460	1650.52332	1959.28418	47.35104	
15561	77.800	1051.30725	1927.48047	49.06200	1034.57581	2247.72998	57.27539	1234.32080	2258.83545	56.12158	1633.76343	2280.32764	56.12756	1650.55969	1959.31787	47.34135	
15562	77.805	1051.33301	1927.47546	49.04614	1034.49365	2247.71387	57.27932	1234.30457	2258.85205	56.05970	1633.80457	2280.34668	56.08749	1650.55383	1959.29285	47.34520	
